<?xml version="1.0" encoding="UTF-8"?>
<!-- Generator: Adobe Illustrator 22.0.1, SVG Export Plug-In . SVG Version: 6.00 Build 0)  -->
<svg version="1.1" id="Layer_1" inkscape:version="0.92.3 (2405546, 2018-03-11)" sodipodi:docname="scikit learn logo small.svg" xmlns:cc="http://creativecommons.org/ns#" xmlns:dc="http://purl.org/dc/elements/1.1/" xmlns:inkscape="http://www.inkscape.org/namespaces/inkscape" xmlns:rdf="http://www.w3.org/1999/02/22-rdf-syntax-ns#" xmlns:sodipodi="http://sodipodi.sourceforge.net/DTD/sodipodi-0.dtd" xmlns:svg="http://www.w3.org/2000/svg" xmlns="http://www.w3.org/2000/svg" xmlns:xlink="http://www.w3.org/1999/xlink" x="0px" y="0px" viewBox="0 0 170 170" style="enable-background:new 0 0 170 170;" xml:space="preserve">
<style type="text/css">
	.st0{display:none;fill:none;stroke:#24CE24;stroke-miterlimit:10;}
	.st1{fill:url(#SVGID_1_);}
	.st2{fill:#001A5E;}
</style>
<sodipodi:namedview bordercolor="#666666" borderopacity="1" fit-margin-bottom="0" fit-margin-left="0" fit-margin-right="0" fit-margin-top="0" gridtolerance="10" guidetolerance="10" id="namedview31" inkscape:current-layer="Layer_1" inkscape:cx="121.6884" inkscape:cy="79.49229" inkscape:pageopacity="0" inkscape:pageshadow="2" inkscape:window-height="626" inkscape:window-maximized="0" inkscape:window-width="777" inkscape:window-x="2951" inkscape:window-y="679" inkscape:zoom="1.0907007" objecttolerance="10" pagecolor="#ffffff" showborder="true" showgrid="false" units="mm">
	</sodipodi:namedview>
<path class="st0" d="M-467-68.7c-28.9,2.1-51.8,26.2-51.8,55.6c0,30.8,25,55.8,55.8,55.8c29.5,0,53.6-22.8,55.6-51.8  C-409.4-41-435-66.6-467-68.7z"/>
<g>
	<linearGradient id="SVGID_1_" gradientUnits="userSpaceOnUse" x1="144.8334" y1="25.1666" x2="40.3998" y2="129.6002">
		<stop offset="0" style="stop-color:#85A5FC"/>
		<stop offset="1" style="stop-color:#4664B2"/>
	</linearGradient>
	<path class="st1" d="M90.7,0.2C52.4,2.9,22.1,34.9,22.1,74c0,40.8,33.1,74,74,74c39,0,71-30.3,73.7-68.6C167,36.9,133.1,3,90.7,0.2   z"/>
	<path class="st2" d="M169.8,79.3c-2.8,38.3-34.7,68.6-73.7,68.6c-16.8,0-32.2-5.6-44.6-15l1.9-1.8c6.1,3.4,13.1,5.4,20.6,5.4   c23.1,0,41.9-18.7,41.9-41.9c0-23.1-18.7-41.9-41.9-41.9S32.1,71.6,32.1,94.7c0,5.2,1,10.2,2.7,14.7l-2.4,2   c-6.5-11-10.2-23.8-10.2-37.5c0-39,30.2-71,68.6-73.7C88.8,0.1,86.9,0,85,0C38.1,0,0,38.1,0,85c0,46.9,38.1,85,85,85s85-38.1,85-85   C170,83.1,169.9,81.2,169.8,79.3z"/>
</g>
</svg>