<svg width="75" height="75" xmlns="http://www.w3.org/2000/svg">
 <!-- Created with Method Draw - http://github.com/duopixel/Method-Draw/ -->
  <style type="text/css">.st0{fill:#0091E2;}</style>
  <g id="svg_15">
   <path id="svg_5" d="m71.17518,32.96777c-0.18405,-0.15337 -1.84049,-1.41104 -5.39876,-1.41104c-0.92024,0 -1.87116,0.09202 -2.79141,0.2454c-0.67485,-4.69324 -4.57055,-6.96318 -4.72392,-7.08588l-0.95092,-0.55215l-0.6135,0.88957c-0.76687,1.19632 -1.34969,2.54601 -1.68711,3.92637c-0.64417,2.66871 -0.2454,5.18404 1.10429,7.33128c-1.62576,0.92024 -4.2638,1.13497 -4.81594,1.16564l-43.55822,0c-1.13497,0 -2.05521,0.92024 -2.05521,2.05521c-0.06135,3.80368 0.58282,7.60735 1.90184,11.1963c1.50307,3.92637 3.74233,6.84048 6.62576,8.61962c3.25153,1.99386 8.55827,3.12883 14.53986,3.12883c2.69938,0 5.39876,-0.2454 8.06747,-0.7362c3.71165,-0.67485 7.26993,-1.96319 10.55213,-3.83435c2.69938,-1.56441 5.12269,-3.55828 7.1779,-5.88956c3.46625,-3.8957 5.52146,-8.25152 7.02453,-12.11655c0.21472,0 0.39877,0 0.6135,0c3.773,0 6.10429,-1.50307 7.39263,-2.79141c0.85889,-0.79754 1.50307,-1.77914 1.96319,-2.88343l0.27607,-0.79754l-0.64417,-0.46012z" class="st0"/>
   <path id="svg_6" d="m11.78877,36.2193l5.82821,0c0.27607,0 0.52147,-0.21472 0.52147,-0.52147l0,0l0,-5.21472c0,-0.27607 -0.21472,-0.52147 -0.52147,-0.52147c0,0 0,0 0,0l-5.82821,0c-0.27607,0 -0.52147,0.21472 -0.52147,0.52147c0,0 0,0 0,0l0,5.21472c0.03067,0.30675 0.2454,0.52147 0.52147,0.52147l0,0" class="st0"/>
   <path id="svg_7" d="m19.82556,36.2193l5.82821,0c0.27607,0 0.52147,-0.21472 0.52147,-0.52147l0,0l0,-5.21472c0,-0.27607 -0.21472,-0.52147 -0.52147,-0.52147c0,0 0,0 0,0l-5.82821,0c-0.27607,0 -0.52147,0.21472 -0.52147,0.52147l0,5.21472c0.03067,0.30675 0.2454,0.52147 0.52147,0.52147" class="st0"/>
   <path id="svg_8" d="m28.01573,36.2193l5.82821,0c0.27607,0 0.52147,-0.21472 0.52147,-0.52147l0,0l0,-5.21472c0,-0.27607 -0.21472,-0.52147 -0.52147,-0.52147c0,0 0,0 0,0l-5.82821,0c-0.27607,0 -0.52147,0.21472 -0.52147,0.52147c0,0 0,0 0,0l0,5.21472c0,0.30675 0.21472,0.52147 0.52147,0.52147l0,0" class="st0"/>
   <path id="svg_9" d="m36.08321,36.2193l5.82821,0c0.27607,0 0.52147,-0.21472 0.52147,-0.52147l0,-5.21472c0,-0.27607 -0.21472,-0.52147 -0.52147,-0.52147l0,0l-5.82821,0c-0.27607,0 -0.52147,0.21472 -0.52147,0.52147c0,0 0,0 0,0l0,5.21472c0,0.30675 0.2454,0.52147 0.52147,0.52147l0,0" class="st0"/>
   <path id="svg_10" d="m19.82556,28.76532l5.82821,0c0.27607,0 0.52147,-0.2454 0.52147,-0.52147l0,-5.21472c0,-0.27607 -0.21472,-0.52147 -0.52147,-0.52147l0,0l-5.82821,0c-0.27607,0 -0.52147,0.21472 -0.52147,0.52147l0,5.21472c0.03067,0.27607 0.2454,0.52147 0.52147,0.52147" class="st0"/>
   <path id="svg_11" d="m28.01573,28.76532l5.82821,0c0.27607,0 0.52147,-0.2454 0.52147,-0.52147l0,-5.21472c0,-0.27607 -0.21472,-0.52147 -0.52147,-0.52147l0,0l-5.82821,0c-0.27607,0 -0.52147,0.21472 -0.52147,0.52147l0,0l0,5.21472c0,0.27607 0.21472,0.52147 0.52147,0.52147" class="st0"/>
   <path id="svg_12" d="m36.08321,28.76532l5.82821,0c0.27607,0 0.52147,-0.2454 0.52147,-0.52147l0,-5.21472c0,-0.27607 -0.2454,-0.52147 -0.52147,-0.52147l-5.82821,0c-0.27607,0 -0.52147,0.21472 -0.52147,0.52147l0,0l0,5.21472c0,0.27607 0.2454,0.52147 0.52147,0.52147" class="st0"/>
   <path id="svg_13" d="m36.08321,21.28067l5.82821,0c0.27607,0 0.52147,-0.21472 0.52147,-0.52147l0,-5.21472c0,-0.27607 -0.2454,-0.52147 -0.52147,-0.52147l-5.82821,0c-0.27607,0 -0.52147,0.21472 -0.52147,0.52147l0,0l0,5.21472c0,0.27607 0.2454,0.52147 0.52147,0.52147" class="st0"/>
   <path id="svg_14" d="m44.21203,36.2193l5.82821,0c0.27607,0 0.52147,-0.21472 0.52147,-0.52147l0,-5.21472c0,-0.27607 -0.21472,-0.52147 -0.52147,-0.52147l0,0l-5.82821,0c-0.27607,0 -0.52147,0.21472 -0.52147,0.52147c0,0 0,0 0,0l0,5.21472c0.03067,0.30675 0.2454,0.52147 0.52147,0.52147" class="st0"/>
  </g>
</svg>